<svg width="52" height="52" viewBox="0 0 52 52" fill="none" xmlns="http://www.w3.org/2000/svg">
<path d="M27.9216 26C27.9216 30.7048 24.1336 34.5189 19.4608 34.5189C14.788 34.5189 11 30.7048 11 26C11 21.2952 14.788 17.4811 19.4608 17.4811C24.1336 17.4811 27.9216 21.2952 27.9216 26Z" fill="white"/>
<path d="M37.2034 26C37.2034 30.4288 35.3093 34.019 32.973 34.019C30.6366 34.019 28.7426 30.4288 28.7426 26C28.7426 21.5712 30.6366 17.981 32.973 17.981C35.3094 17.981 37.2034 21.5712 37.2034 26Z" fill="white"/>
<path d="M41 26C41 29.968 40.3338 33.1847 39.5121 33.1847C38.6903 33.1847 38.0243 29.968 38.0243 26C38.0243 22.032 38.6903 18.8153 39.5121 18.8153C40.3338 18.8153 41 22.032 41 26Z" fill="white"/>
</svg>
