<svg width="52" height="52" viewBox="0 0 52 52" fill="none" xmlns="http://www.w3.org/2000/svg">
<path d="M38 38V29.21C38 24.89 37.07 21.59 32.03 21.59C29.6 21.59 27.98 22.91 27.32 24.17H27.26V21.98H22.49V38H27.47V30.05C27.47 27.95 27.86 25.94 30.44 25.94C32.99 25.94 33.02 28.31 33.02 30.17V37.97H38V38Z" fill="white"/>
<path d="M14.39 21.98H19.37V38H14.39V21.98Z" fill="white"/>
<path d="M16.88 14C15.29 14 14 15.29 14 16.88C14 18.47 15.29 19.79 16.88 19.79C18.47 19.79 19.76 18.47 19.76 16.88C19.76 15.29 18.47 14 16.88 14Z" fill="white"/>
</svg>
